<mxfile host="app.diagrams.net" agent="Mozilla/5.0 (Windows NT 10.0; Win64; x64) AppleWebKit/537.36 (KHTML, like Gecko) Chrome/109.0.0.0 Safari/537.36" version="26.2.9">
  <diagram name="Page-1" id="74e2e168-ea6b-b213-b513-2b3c1d86103e">
    <mxGraphModel dx="1428" dy="769" grid="1" gridSize="10" guides="1" tooltips="1" connect="1" arrows="1" fold="1" page="1" pageScale="1" pageWidth="1100" pageHeight="850" background="none" math="0" shadow="0">
      <root>
        <mxCell id="0" />
        <mxCell id="1" parent="0" />
        <mxCell id="UGczvw97jG8hKUeixycM-2" value="ERP" style="rounded=0;whiteSpace=wrap;html=1;" vertex="1" parent="1">
          <mxGeometry x="120" y="50" width="330" height="60" as="geometry" />
        </mxCell>
        <mxCell id="UGczvw97jG8hKUeixycM-3" value="ChatBI" style="rounded=0;whiteSpace=wrap;html=1;" vertex="1" parent="1">
          <mxGeometry x="580" y="50" width="390" height="60" as="geometry" />
        </mxCell>
        <mxCell id="UGczvw97jG8hKUeixycM-4" value="人员" style="rounded=0;whiteSpace=wrap;html=1;" vertex="1" parent="1">
          <mxGeometry x="350" y="140" width="100" height="60" as="geometry" />
        </mxCell>
        <mxCell id="UGczvw97jG8hKUeixycM-5" value="人员" style="rounded=0;whiteSpace=wrap;html=1;" vertex="1" parent="1">
          <mxGeometry x="580" y="140" width="120" height="60" as="geometry" />
        </mxCell>
        <mxCell id="UGczvw97jG8hKUeixycM-7" value="其他类型数据" style="rounded=0;whiteSpace=wrap;html=1;" vertex="1" parent="1">
          <mxGeometry x="348" y="338" width="100" height="60" as="geometry" />
        </mxCell>
        <mxCell id="UGczvw97jG8hKUeixycM-8" value="实体表单" style="rounded=0;whiteSpace=wrap;html=1;" vertex="1" parent="1">
          <mxGeometry x="580" y="338" width="120" height="60" as="geometry" />
        </mxCell>
        <mxCell id="UGczvw97jG8hKUeixycM-9" value="" style="shape=flexArrow;endArrow=classic;html=1;rounded=0;width=12;endSize=8.33;" edge="1" parent="1">
          <mxGeometry width="50" height="50" relative="1" as="geometry">
            <mxPoint x="480" y="368" as="sourcePoint" />
            <mxPoint x="550" y="368" as="targetPoint" />
          </mxGeometry>
        </mxCell>
        <mxCell id="UGczvw97jG8hKUeixycM-10" value="" style="shape=flexArrow;endArrow=classic;html=1;rounded=0;" edge="1" parent="1">
          <mxGeometry width="50" height="50" relative="1" as="geometry">
            <mxPoint x="480" y="169.5" as="sourcePoint" />
            <mxPoint x="550" y="169.5" as="targetPoint" />
          </mxGeometry>
        </mxCell>
        <mxCell id="UGczvw97jG8hKUeixycM-15" value="权限过滤" style="rounded=0;whiteSpace=wrap;html=1;" vertex="1" parent="1">
          <mxGeometry x="580" y="230" width="390" height="40" as="geometry" />
        </mxCell>
        <mxCell id="UGczvw97jG8hKUeixycM-16" value="角色" style="rounded=0;whiteSpace=wrap;html=1;" vertex="1" parent="1">
          <mxGeometry x="850" y="140" width="120" height="60" as="geometry" />
        </mxCell>
        <mxCell id="UGczvw97jG8hKUeixycM-17" value="实体表单" style="rounded=0;whiteSpace=wrap;html=1;" vertex="1" parent="1">
          <mxGeometry x="850" y="338" width="120" height="60" as="geometry" />
        </mxCell>
        <mxCell id="UGczvw97jG8hKUeixycM-18" value="实体表单" style="rounded=0;whiteSpace=wrap;html=1;" vertex="1" parent="1">
          <mxGeometry x="715" y="338" width="120" height="60" as="geometry" />
        </mxCell>
        <mxCell id="UGczvw97jG8hKUeixycM-20" value="" style="endArrow=classic;html=1;rounded=0;" edge="1" parent="1">
          <mxGeometry width="50" height="50" relative="1" as="geometry">
            <mxPoint x="639.5" y="200" as="sourcePoint" />
            <mxPoint x="639.5" y="230" as="targetPoint" />
          </mxGeometry>
        </mxCell>
        <mxCell id="UGczvw97jG8hKUeixycM-22" value="" style="endArrow=classic;html=1;rounded=0;" edge="1" parent="1">
          <mxGeometry width="50" height="50" relative="1" as="geometry">
            <mxPoint x="920" y="200" as="sourcePoint" />
            <mxPoint x="920" y="230" as="targetPoint" />
          </mxGeometry>
        </mxCell>
        <mxCell id="UGczvw97jG8hKUeixycM-24" value="组织" style="rounded=0;whiteSpace=wrap;html=1;" vertex="1" parent="1">
          <mxGeometry x="120" y="140" width="80" height="60" as="geometry" />
        </mxCell>
        <mxCell id="UGczvw97jG8hKUeixycM-25" value="角色" style="rounded=0;whiteSpace=wrap;html=1;" vertex="1" parent="1">
          <mxGeometry x="224" y="140" width="100" height="60" as="geometry" />
        </mxCell>
        <mxCell id="UGczvw97jG8hKUeixycM-26" value="组织" style="rounded=0;whiteSpace=wrap;html=1;" vertex="1" parent="1">
          <mxGeometry x="740" y="140" width="80" height="60" as="geometry" />
        </mxCell>
        <mxCell id="UGczvw97jG8hKUeixycM-27" value="" style="endArrow=classic;html=1;rounded=0;" edge="1" parent="1">
          <mxGeometry width="50" height="50" relative="1" as="geometry">
            <mxPoint x="779.5" y="200" as="sourcePoint" />
            <mxPoint x="779.5" y="230" as="targetPoint" />
          </mxGeometry>
        </mxCell>
        <mxCell id="UGczvw97jG8hKUeixycM-28" value="业务报表" style="rounded=0;whiteSpace=wrap;html=1;" vertex="1" parent="1">
          <mxGeometry x="120" y="338" width="100" height="60" as="geometry" />
        </mxCell>
        <mxCell id="UGczvw97jG8hKUeixycM-29" value="单据" style="rounded=0;whiteSpace=wrap;html=1;" vertex="1" parent="1">
          <mxGeometry x="230" y="338" width="100" height="60" as="geometry" />
        </mxCell>
        <mxCell id="UGczvw97jG8hKUeixycM-31" value="" style="shape=flexArrow;endArrow=classic;html=1;rounded=0;" edge="1" parent="1">
          <mxGeometry width="50" height="50" relative="1" as="geometry">
            <mxPoint x="779.5" y="278" as="sourcePoint" />
            <mxPoint x="780" y="330" as="targetPoint" />
          </mxGeometry>
        </mxCell>
      </root>
    </mxGraphModel>
  </diagram>
</mxfile>
